HIERARCHY
ROOT Hips
{
 OFFSET 0.000000 0.000000 0.000000
 CHANNELS 6 Xposition Yposition Zposition Yrotation Xrotation Zrotation
 JOINT Chest
 {
  OFFSET 0.000000 9.588913 -0.003946
  CHANNELS 3 Yrotation Xrotation Zrotation
  JOINT Chest2
  {
   OFFSET 0.000000 9.541882 0.008053
   CHANNELS 3 Yrotation Xrotation Zrotation
   JOINT Chest3
   {
    OFFSET 0.000000 9.501360 0.000000
    CHANNELS 3 Yrotation Xrotation Zrotation
    JOINT Chest4
    {
     OFFSET 0.000000 9.491660 0.000000
     CHANNELS 3 Yrotation Xrotation Zrotation
     JOINT Neck
     {
      OFFSET 0.000000 14.331917 0.000000
      CHANNELS 3 Yrotation Xrotation Zrotation
      JOINT Head
      {
       OFFSET 0.000000 8.884799 0.017034
       CHANNELS 3 Yrotation Xrotation Zrotation
       End Site
       {
        OFFSET 0.000000 16.896195 0.008993
       }
      }
     }
     JOINT RightCollar
     {
      OFFSET -2.923010 9.499495 0.000000
      CHANNELS 3 Yrotation Xrotation Zrotation
      JOINT RightShoulder
      {
       OFFSET -13.795216 0.000000 0.000000
       CHANNELS 3 Yrotation Xrotation Zrotation
       JOINT RightElbow
       {
        OFFSET -30.272209 0.000000 0.000000
        CHANNELS 3 Yrotation Xrotation Zrotation
        JOINT RightWrist
        {
         OFFSET -24.478199 0.000000 0.000000
         CHANNELS 3 Yrotation Xrotation Zrotation
         End Site
         {
          OFFSET -18.090752 0.000000 0.000000
         }
        }
       }
      }
     }
     JOINT LeftCollar
     {
      OFFSET 2.923010 9.499495 0.000000
      CHANNELS 3 Yrotation Xrotation Zrotation
      JOINT LeftShoulder
      {
       OFFSET 13.795216 0.000000 0.000000
       CHANNELS 3 Yrotation Xrotation Zrotation
       JOINT LeftElbow
       {
        OFFSET 30.272209 0.000000 0.000000
        CHANNELS 3 Yrotation Xrotation Zrotation
        JOINT LeftWrist
        {
         OFFSET 24.478199 0.000000 0.000000
         CHANNELS 3 Yrotation Xrotation Zrotation
         End Site
         {
          OFFSET 18.090752 0.000000 0.000000
         }
        }
       }
      }
     }
    }
   }
  }
 }
 JOINT RightHip
 {
  OFFSET -7.826875 0.019532 0.001973
  CHANNELS 3 Yrotation Xrotation Zrotation
  JOINT RightKnee
  {
   OFFSET 0.000000 -40.546152 -0.001885
   CHANNELS 3 Yrotation Xrotation Zrotation
   JOINT RightAnkle
   {
    OFFSET 0.000000 -39.417092 -0.003189
    CHANNELS 3 Yrotation Xrotation Zrotation
    JOINT RightToe
    {
     OFFSET 0.000000 -7.579396 17.243563
     CHANNELS 3 Yrotation Xrotation Zrotation
     End Site
     {
      OFFSET 0.000000 -1.500329 6.694466
     }
    }
   }
  }
 }
 JOINT LeftHip
 {
  OFFSET 7.826875 0.019532 0.001973
  CHANNELS 3 Yrotation Xrotation Zrotation
  JOINT LeftKnee
  {
   OFFSET 0.000000 -40.546152 -0.001885
   CHANNELS 3 Yrotation Xrotation Zrotation
   JOINT LeftAnkle
   {
    OFFSET 0.000000 -39.417092 -0.003189
    CHANNELS 3 Yrotation Xrotation Zrotation
    JOINT LeftToe
    {
     OFFSET 0.000000 -7.579396 17.243563
     CHANNELS 3 Yrotation Xrotation Zrotation
     End Site
     {
      OFFSET 0.000000 -1.500329 6.694466
     }
    }
   }
  }
 }
}
MOTION
Frames: 9
Frame Time: 0.008333
0.000000 87.345680 0.000000 0.000000 -5.767889 0.000000 0.000000 11.653876 0.000000 0.000000 -5.885988 0.000000 0.000000 -0.000000 0.000000 0.000000 -0.000000 0.000000 0.000000 12.528808 0.000000 0.000000 0.711711 0.000000 0.000000 -0.000000 0.000000 0.000000 -0.000000 0.000000 2.309063 -0.000000 0.000000 -2.309063 -0.000000 -0.000000 0.000000 -0.000000 0.000000 0.000000 0.000000 0.000000 -2.309063 0.000000 0.000000 2.309063 -0.000000 0.000000 0.000000 8.520374 0.000000 0.000000 1.905768 0.000000 -0.000000 -4.658254 0.000000 0.000000 -0.000000 0.000000 0.000000 8.520374 0.000000 0.000000 1.905768 0.000000 -0.000000 -4.658254 0.000000 0.000000 -0.000000 0.000000
4.821968 86.722104 10.675489 37.806334 -9.620560 -5.598238 -0.987123 -0.648215 4.870909 -0.690533 -0.700420 2.313333 -0.867557 -0.871121 2.893026 -0.690533 -0.700420 2.313333 6.492360 20.900256 0.572695 6.910041 -3.266170 -0.872201 11.641836 -4.742098 3.978639 2.328441 -36.084673 89.451183 97.724945 -23.286849 34.263231 13.099992 -7.450236 -0.434259 -12.643634 -4.077674 -3.936129 -9.207995 -14.203982 -85.255028 -25.057774 14.995146 -59.538068 -8.152689 -5.743853 -7.296875 7.996173 11.871774 12.535108 -0.935822 0.132234 1.453654 0.256274 -5.277001 -6.099143 0.055499 1.231727 0.024477 13.997830 -7.229332 15.246854 9.781642 37.200122 6.298383 5.747725 -17.447602 -11.858608 -0.433672 -1.265979 -0.191582
4.827101 86.723026 10.675706 37.810831 -9.616433 -5.594423 -0.988509 -0.649337 4.867331 -0.691653 -0.702192 2.312837 -0.868968 -0.873329 2.892411 -0.691653 -0.702192 2.312837 6.494230 20.915669 0.577978 6.911171 -3.248266 -0.866856 11.642352 -4.733557 3.984378 2.316569 -36.077057 89.451959 97.724691 -23.291258 34.271100 13.105631 -7.451456 -0.431842 -12.630510 -4.071168 -3.937264 -9.220007 -14.206772 -85.264700 -25.055309 14.997840 -59.519082 -8.126489 -5.732005 -7.302068 7.993279 11.875090 12.527806 -0.942024 0.124257 1.453702 0.256435 -5.273997 -6.095739 0.054874 1.231766 0.024214 14.002330 -7.227952 15.240246 9.779402 37.193350 6.294683 5.746602 -17.446777 -11.853786 -0.434866 -1.261401 -0.191387
4.832759 86.724075 10.675745 37.819959 -9.610198 -5.590980 -0.992428 -0.651820 4.863522 -0.693743 -0.703564 2.312727 -0.871589 -0.875030 2.892281 -0.693743 -0.703564 2.312727 6.496210 20.931053 0.581651 6.912807 -3.230351 -0.863282 11.643638 -4.725802 3.988742 2.303336 -36.067639 89.449503 97.722781 -23.301047 34.280502 13.111260 -7.450510 -0.430915 -12.620195 -4.065560 -3.941038 -9.228760 -14.213500 -85.273327 -25.052356 15.001518 -59.502551 -8.103704 -5.723246 -7.304110 7.984950 11.878234 12.519356 -0.949812 0.114841 1.454440 0.257814 -5.270027 -6.093962 0.054922 1.231053 0.025164 14.003017 -7.228213 15.233621 9.773226 37.186760 6.289366 5.741565 -17.446214 -11.845766 -0.440582 -1.258301 -0.193306
4.838584 86.725286 10.675874 37.829968 -9.603698 -5.588991 -0.996538 -0.654444 4.861201 -0.696087 -0.704748 2.312915 -0.874527 -0.876496 2.892522 -0.696087 -0.704748 2.312915 6.497764 20.946386 0.583071 6.914499 -3.212481 -0.862053 11.646966 -4.717425 3.992814 2.288685 -36.056616 89.444566 97.722321 -23.310064 34.286173 13.116197 -7.447243 -0.426610 -12.612310 -4.061322 -3.947195 -9.234284 -14.219922 -85.280679 -25.051322 15.005065 -59.487406 -8.084260 -5.716974 -7.305752 7.975209 11.881673 12.512364 -0.954854 0.104550 1.454197 0.257519 -5.264611 -6.091633 0.055136 1.229288 0.026038 14.000414 -7.227998 15.227910 9.764590 37.179980 6.282540 5.742310 -17.445310 -11.840774 -0.444267 -1.255612 -0.193950
4.844111 86.726712 10.676426 37.835541 -9.598705 -5.590090 -0.998012 -0.656506 4.862539 -0.697334 -0.705987 2.312804 -0.876092 -0.878036 2.892388 -0.697334 -0.705987 2.312804 6.499209 20.961979 0.583987 6.916195 -3.194304 -0.861345 11.648714 -4.705825 3.998166 2.271237 -36.046160 89.441831 97.723162 -23.313561 34.289134 13.119771 -7.441887 -0.416919 -12.603105 -4.056681 -3.952241 -9.244573 -14.224486 -85.289420 -25.051180 15.002481 -59.470039 -8.062506 -5.710570 -7.308045 7.969216 11.884970 12.509243 -0.953540 0.094960 1.453115 0.253946 -5.257227 -6.087717 0.055245 1.226006 0.025922 13.998786 -7.226553 15.223788 9.759111 37.172464 6.276391 5.761446 -17.443069 -11.846094 -0.437851 -1.251285 -0.189302
4.849804 86.728242 10.676665 37.838997 -9.594028 -5.589167 -0.998113 -0.659635 4.863394 -0.697439 -0.707450 2.312178 -0.876232 -0.879865 2.891609 -0.697439 -0.707450 2.312178 6.500041 20.977943 0.585074 6.917173 -3.175743 -0.860309 11.645736 -4.690506 4.002900 2.251825 -36.034636 89.441845 97.725405 -23.313973 34.292109 13.120258 -7.433592 -0.407356 -12.594115 -4.049569 -3.955991 -9.258467 -14.227766 -85.301633 -25.052077 14.993479 -59.449328 -8.035476 -5.703770 -7.309062 7.963450 11.888112 12.502854 -0.948152 0.086625 1.453380 0.249603 -5.251308 -6.083639 0.055980 1.223819 0.025615 13.995556 -7.223776 15.217425 9.757293 37.165312 6.271762 5.781419 -17.439649 -11.851939 -0.432589 -1.248790 -0.185253
4.856129 86.729937 10.676692 37.839361 -9.592398 -5.583979 -0.995695 -0.660160 4.861497 -0.697182 -0.708699 2.311027 -0.875917 -0.881431 2.890172 -0.697182 -0.708699 2.311027 6.500455 20.992213 0.586372 6.917600 -3.159178 -0.858953 11.639668 -4.674466 4.006733 2.228890 -36.020202 89.443939 97.728202 -23.314556 34.297088 13.118842 -7.425460 -0.400405 -12.589062 -4.040834 -3.959236 -9.265471 -14.231061 -85.314539 -25.053650 14.983975 -59.427243 -8.005533 -5.696480 -7.308024 7.958122 11.895217 12.491649 -0.944809 0.078064 1.455151 0.248879 -5.247201 -6.079253 0.057462 1.223134 0.024866 13.993200 -7.215983 15.208706 9.758823 37.158391 6.269225 5.791018 -17.436071 -11.853030 -0.433179 -1.249558 -0.184786
4.862733 86.731785 10.676286 37.835309 -9.591648 -5.575191 -0.991514 -0.658513 4.857167 -0.696525 -0.709416 2.309689 -0.875098 -0.882334 2.888500 -0.696525 -0.709416 2.309689 6.501137 21.003556 0.587763 6.918249 -3.145989 -0.857566 11.632953 -4.660037 4.008799 2.199267 -36.005203 89.449482 97.727387 -23.314487 34.305056 13.117442 -7.421437 -0.394538 -12.587681 -4.032864 -3.963428 -9.262455 -14.235872 -85.326919 -25.054407 14.977651 -59.405001 -7.975081 -5.688887 -7.306643 7.954442 11.903895 12.477099 -0.946266 0.068430 1.456887 0.253707 -5.243855 -6.073208 0.058953 1.223784 0.023223 13.994729 -7.204271 15.197630 9.760987 37.148048 6.265943 5.794980 -17.433145 -11.849748 -0.438289 -1.250029 -0.186821
